{
    "asset" : {
        "generator" : "Khronos glTF Blender I/O v3.2.40",
        "version" : "2.0"
    },
    "scene" : 0,
    "scenes" : [
        {
            "name" : "Scene",
            "nodes" : [
                0,
                1,
                2,
                3,
                4,
                5,
                6,
                7
            ]
        }
    ],
    "nodes" : [
        {
            "mesh" : 0,
            "name" : "car body"
        },
        {
            "mesh" : 1,
            "name" : "rear right door"
        },
        {
            "mesh" : 2,
            "name" : "front left door"
        },
        {
            "mesh" : 3,
            "name" : "front right wheel"
        },
        {
            "mesh" : 4,
            "name" : "rear wheels",
            "translation" : [
                0,
                0,
                -17.317476272583008
            ]
        },
        {
            "mesh" : 5,
            "name" : "front left wheel"
        },
        {
            "mesh" : 6,
            "name" : "front right door"
        },
        {
            "mesh" : 7,
            "name" : "rear left door"
        }
    ],
    "materials" : [
        {
            "doubleSided" : true,
            "name" : "car.001",
            "pbrMetallicRoughness" : {
                "baseColorTexture" : {
                    "index" : 0
                },
                "metallicFactor" : 0,
                "roughnessFactor" : 0.4000000059604645
            }
        }
    ],
    "meshes" : [
        {
            "name" : "Plane.001",
            "primitives" : [
                {
                    "attributes" : {
                        "POSITION" : 0,
                        "NORMAL" : 1,
                        "TEXCOORD_0" : 2
                    },
                    "indices" : 3,
                    "material" : 0
                }
            ]
        },
        {
            "name" : "Plane.003",
            "primitives" : [
                {
                    "attributes" : {
                        "POSITION" : 4,
                        "NORMAL" : 5,
                        "TEXCOORD_0" : 6
                    },
                    "indices" : 7,
                    "material" : 0
                }
            ]
        },
        {
            "name" : "Plane.004",
            "primitives" : [
                {
                    "attributes" : {
                        "POSITION" : 8,
                        "NORMAL" : 9,
                        "TEXCOORD_0" : 10
                    },
                    "indices" : 11,
                    "material" : 0
                }
            ]
        },
        {
            "name" : "Circle.004",
            "primitives" : [
                {
                    "attributes" : {
                        "POSITION" : 12,
                        "NORMAL" : 13,
                        "TEXCOORD_0" : 14
                    },
                    "indices" : 15,
                    "material" : 0
                }
            ]
        },
        {
            "name" : "Circle.005",
            "primitives" : [
                {
                    "attributes" : {
                        "POSITION" : 16,
                        "NORMAL" : 17,
                        "TEXCOORD_0" : 18
                    },
                    "indices" : 19,
                    "material" : 0
                }
            ]
        },
        {
            "name" : "Circle.006",
            "primitives" : [
                {
                    "attributes" : {
                        "POSITION" : 20,
                        "NORMAL" : 21,
                        "TEXCOORD_0" : 22
                    },
                    "indices" : 23,
                    "material" : 0
                }
            ]
        },
        {
            "name" : "Plane.005",
            "primitives" : [
                {
                    "attributes" : {
                        "POSITION" : 24,
                        "NORMAL" : 25,
                        "TEXCOORD_0" : 26
                    },
                    "indices" : 27,
                    "material" : 0
                }
            ]
        },
        {
            "name" : "Plane.006",
            "primitives" : [
                {
                    "attributes" : {
                        "POSITION" : 28,
                        "NORMAL" : 29,
                        "TEXCOORD_0" : 30
                    },
                    "indices" : 31,
                    "material" : 0
                }
            ]
        }
    ],
    "textures" : [
        {
            "sampler" : 0,
            "source" : 0
        }
    ],
    "images" : [
        {
            "mimeType" : "image/png",
            "name" : "car_2",
            "uri" : "car_2.png"
        }
    ],
    "accessors" : [
        {
            "bufferView" : 0,
            "componentType" : 5126,
            "count" : 4777,
            "max" : [
                5.571248531341553,
                5.857112407684326,
                20.33995246887207
            ],
            "min" : [
                -5.571248531341553,
                -1.9007041454315186,
                -8.650169372558594
            ],
            "type" : "VEC3"
        },
        {
            "bufferView" : 1,
            "componentType" : 5126,
            "count" : 4777,
            "type" : "VEC3"
        },
        {
            "bufferView" : 2,
            "componentType" : 5126,
            "count" : 4777,
            "type" : "VEC2"
        },
        {
            "bufferView" : 3,
            "componentType" : 5123,
            "count" : 12270,
            "type" : "SCALAR"
        },
        {
            "bufferView" : 4,
            "componentType" : 5126,
            "count" : 507,
            "max" : [
                -3.320279121398926,
                5.59433650970459,
                4.795815944671631
            ],
            "min" : [
                -5.560143947601318,
                -1.1523480415344238,
                -1.919860601425171
            ],
            "type" : "VEC3"
        },
        {
            "bufferView" : 5,
            "componentType" : 5126,
            "count" : 507,
            "type" : "VEC3"
        },
        {
            "bufferView" : 6,
            "componentType" : 5126,
            "count" : 507,
            "type" : "VEC2"
        },
        {
            "bufferView" : 7,
            "componentType" : 5123,
            "count" : 852,
            "type" : "SCALAR"
        },
        {
            "bufferView" : 8,
            "componentType" : 5126,
            "count" : 499,
            "max" : [
                -3.328779935836792,
                5.568090915679932,
                11.745976448059082
            ],
            "min" : [
                -6.0162835121154785,
                -1.1643469333648682,
                4.296619892120361
            ],
            "type" : "VEC3"
        },
        {
            "bufferView" : 9,
            "componentType" : 5126,
            "count" : 499,
            "type" : "VEC3"
        },
        {
            "bufferView" : 10,
            "componentType" : 5126,
            "count" : 499,
            "type" : "VEC2"
        },
        {
            "bufferView" : 11,
            "componentType" : 5123,
            "count" : 954,
            "type" : "SCALAR"
        },
        {
            "bufferView" : 12,
            "componentType" : 5126,
            "count" : 320,
            "max" : [
                -3.8247506618499756,
                1.3254785537719727,
                17.28934097290039
            ],
            "min" : [
                -5.61135721206665,
                -2.8440659046173096,
                13.261222839355469
            ],
            "type" : "VEC3"
        },
        {
            "bufferView" : 13,
            "componentType" : 5126,
            "count" : 320,
            "type" : "VEC3"
        },
        {
            "bufferView" : 14,
            "componentType" : 5126,
            "count" : 320,
            "type" : "VEC2"
        },
        {
            "bufferView" : 15,
            "componentType" : 5123,
            "count" : 813,
            "type" : "SCALAR"
        },
        {
            "bufferView" : 16,
            "componentType" : 5126,
            "count" : 640,
            "max" : [
                5.61135721206665,
                1.3254785537719727,
                17.28934097290039
            ],
            "min" : [
                -5.61135721206665,
                -2.8440659046173096,
                13.261222839355469
            ],
            "type" : "VEC3"
        },
        {
            "bufferView" : 17,
            "componentType" : 5126,
            "count" : 640,
            "type" : "VEC3"
        },
        {
            "bufferView" : 18,
            "componentType" : 5126,
            "count" : 640,
            "type" : "VEC2"
        },
        {
            "bufferView" : 19,
            "componentType" : 5123,
            "count" : 1626,
            "type" : "SCALAR"
        },
        {
            "bufferView" : 20,
            "componentType" : 5126,
            "count" : 320,
            "max" : [
                5.61135721206665,
                1.3254785537719727,
                17.28934097290039
            ],
            "min" : [
                3.8247506618499756,
                -2.8440659046173096,
                13.261222839355469
            ],
            "type" : "VEC3"
        },
        {
            "bufferView" : 21,
            "componentType" : 5126,
            "count" : 320,
            "type" : "VEC3"
        },
        {
            "bufferView" : 22,
            "componentType" : 5126,
            "count" : 320,
            "type" : "VEC2"
        },
        {
            "bufferView" : 23,
            "componentType" : 5123,
            "count" : 813,
            "type" : "SCALAR"
        },
        {
            "bufferView" : 24,
            "componentType" : 5126,
            "count" : 498,
            "max" : [
                6.0162835121154785,
                5.568090915679932,
                11.745976448059082
            ],
            "min" : [
                3.328779935836792,
                -1.1643469333648682,
                4.296619892120361
            ],
            "type" : "VEC3"
        },
        {
            "bufferView" : 25,
            "componentType" : 5126,
            "count" : 498,
            "type" : "VEC3"
        },
        {
            "bufferView" : 26,
            "componentType" : 5126,
            "count" : 498,
            "type" : "VEC2"
        },
        {
            "bufferView" : 27,
            "componentType" : 5123,
            "count" : 954,
            "type" : "SCALAR"
        },
        {
            "bufferView" : 28,
            "componentType" : 5126,
            "count" : 504,
            "max" : [
                5.560143947601318,
                5.59433650970459,
                4.795815944671631
            ],
            "min" : [
                3.320279121398926,
                -1.1523480415344238,
                -1.919860601425171
            ],
            "type" : "VEC3"
        },
        {
            "bufferView" : 29,
            "componentType" : 5126,
            "count" : 504,
            "type" : "VEC3"
        },
        {
            "bufferView" : 30,
            "componentType" : 5126,
            "count" : 504,
            "type" : "VEC2"
        },
        {
            "bufferView" : 31,
            "componentType" : 5123,
            "count" : 852,
            "type" : "SCALAR"
        }
    ],
    "bufferViews" : [
        {
            "buffer" : 0,
            "byteLength" : 57324,
            "byteOffset" : 0
        },
        {
            "buffer" : 0,
            "byteLength" : 57324,
            "byteOffset" : 57324
        },
        {
            "buffer" : 0,
            "byteLength" : 38216,
            "byteOffset" : 114648
        },
        {
            "buffer" : 0,
            "byteLength" : 24540,
            "byteOffset" : 152864
        },
        {
            "buffer" : 0,
            "byteLength" : 6084,
            "byteOffset" : 177404
        },
        {
            "buffer" : 0,
            "byteLength" : 6084,
            "byteOffset" : 183488
        },
        {
            "buffer" : 0,
            "byteLength" : 4056,
            "byteOffset" : 189572
        },
        {
            "buffer" : 0,
            "byteLength" : 1704,
            "byteOffset" : 193628
        },
        {
            "buffer" : 0,
            "byteLength" : 5988,
            "byteOffset" : 195332
        },
        {
            "buffer" : 0,
            "byteLength" : 5988,
            "byteOffset" : 201320
        },
        {
            "buffer" : 0,
            "byteLength" : 3992,
            "byteOffset" : 207308
        },
        {
            "buffer" : 0,
            "byteLength" : 1908,
            "byteOffset" : 211300
        },
        {
            "buffer" : 0,
            "byteLength" : 3840,
            "byteOffset" : 213208
        },
        {
            "buffer" : 0,
            "byteLength" : 3840,
            "byteOffset" : 217048
        },
        {
            "buffer" : 0,
            "byteLength" : 2560,
            "byteOffset" : 220888
        },
        {
            "buffer" : 0,
            "byteLength" : 1626,
            "byteOffset" : 223448
        },
        {
            "buffer" : 0,
            "byteLength" : 7680,
            "byteOffset" : 225076
        },
        {
            "buffer" : 0,
            "byteLength" : 7680,
            "byteOffset" : 232756
        },
        {
            "buffer" : 0,
            "byteLength" : 5120,
            "byteOffset" : 240436
        },
        {
            "buffer" : 0,
            "byteLength" : 3252,
            "byteOffset" : 245556
        },
        {
            "buffer" : 0,
            "byteLength" : 3840,
            "byteOffset" : 248808
        },
        {
            "buffer" : 0,
            "byteLength" : 3840,
            "byteOffset" : 252648
        },
        {
            "buffer" : 0,
            "byteLength" : 2560,
            "byteOffset" : 256488
        },
        {
            "buffer" : 0,
            "byteLength" : 1626,
            "byteOffset" : 259048
        },
        {
            "buffer" : 0,
            "byteLength" : 5976,
            "byteOffset" : 260676
        },
        {
            "buffer" : 0,
            "byteLength" : 5976,
            "byteOffset" : 266652
        },
        {
            "buffer" : 0,
            "byteLength" : 3984,
            "byteOffset" : 272628
        },
        {
            "buffer" : 0,
            "byteLength" : 1908,
            "byteOffset" : 276612
        },
        {
            "buffer" : 0,
            "byteLength" : 6048,
            "byteOffset" : 278520
        },
        {
            "buffer" : 0,
            "byteLength" : 6048,
            "byteOffset" : 284568
        },
        {
            "buffer" : 0,
            "byteLength" : 4032,
            "byteOffset" : 290616
        },
        {
            "buffer" : 0,
            "byteLength" : 1704,
            "byteOffset" : 294648
        }
    ],
    "samplers" : [
        {
            "magFilter" : 9729,
            "minFilter" : 9987
        }
    ],
    "buffers" : [
        {
            "byteLength" : 296352,
            "uri" : "mercedes-benz-190.bin"
        }
    ]
}
